solid STL generated by MeshLab
  facet normal  0.000000e+00  0.000000e+00  1.000000e+00
    outer loop
      vertex  -7.843108e-02  1.378731e-02  2.680000e-01
      vertex  -8.499904e-02 -1.072463e-02  2.680000e-01
      vertex  -7.843108e-02 -1.378731e-02  2.680000e-01
    endloop
  endfacet
  facet normal  0.000000e+00 -0.000000e+00 -1.000000e+00
    outer loop
      vertex  -8.574787e-02  9.766505e-03  2.460000e-01
      vertex  -7.753202e-02  1.373310e-02  2.460000e-01
      vertex  -8.763973e-02 -7.775427e-03  2.460000e-01
    endloop
  endfacet
  facet normal  0.000000e+00  0.000000e+00  1.000000e+00
    outer loop
      vertex  -8.763973e-02 -7.775427e-03  2.460000e-01
      vertex  -6.436624e-02 -7.775427e-03  2.460000e-01
      vertex  -6.242701e-02  3.400604e-03  2.460000e-01
    endloop
  endfacet
  facet normal  0.000000e+00  0.000000e+00  1.000000e+00
    outer loop
      vertex  -7.064718e-02  1.293006e-02  2.460000e-01
      vertex  -8.763973e-02 -7.775427e-03  2.460000e-01
      vertex  -6.242701e-02  3.400604e-03  2.460000e-01
    endloop
  endfacet
  facet normal -0.000000e+00  0.000000e+00  1.000000e+00
    outer loop
      vertex  -8.574787e-02  9.766505e-03  2.460000e-01
      vertex  -8.763973e-02 -7.775427e-03  2.460000e-01
      vertex  -7.064718e-02  1.293006e-02  2.460000e-01
    endloop
  endfacet
  facet normal  0.000000e+00  0.000000e+00  1.000000e+00
    outer loop
      vertex  -8.954679e-02  3.526533e-03  7.800000e-02
      vertex  -9.997466e-02 -6.000589e-02  7.800000e-02
      vertex  -8.122126e-02 -1.298618e-02  7.800000e-02
    endloop
  endfacet
  facet normal  7.953201e-01  6.061851e-01 -2.363800e-03
    outer loop
      vertex   8.931363e-02  2.983446e-03  2.680000e-01
      vertex   8.181582e-02  1.273485e-02  2.460000e-01
      vertex   8.191667e-02  1.268832e-02  2.680000e-01
    endloop
  endfacet
  facet normal -9.316014e-01  2.496221e-01  2.642114e-01
    outer loop
      vertex  -7.843108e-02  1.378731e-02  2.680000e-01
      vertex  -8.574787e-02  9.766505e-03  2.460000e-01
      vertex  -8.499904e-02 -1.072463e-02  2.680000e-01
    endloop
  endfacet
  facet normal -6.281521e-01  7.779518e-01 -1.469104e-02
    outer loop
      vertex  -8.574787e-02  9.766505e-03  2.460000e-01
      vertex  -7.659696e-02  1.398279e-02  7.800000e-02
      vertex  -8.954679e-02  3.526533e-03  7.800000e-02
    endloop
  endfacet
  facet normal -4.215626e-01 -9.040475e-01 -7.059113e-02
    outer loop
      vertex  -8.499904e-02 -1.072463e-02  2.680000e-01
      vertex  -8.763973e-02 -7.775427e-03  2.460000e-01
      vertex  -7.843108e-02 -1.378731e-02  2.680000e-01
    endloop
  endfacet
  facet normal -4.346912e-01  9.003578e-01 -1.998268e-02
    outer loop
      vertex  -8.574787e-02  9.766505e-03  2.460000e-01
      vertex  -7.843108e-02  1.378731e-02  2.680000e-01
      vertex  -7.753202e-02  1.373310e-02  2.460000e-01
    endloop
  endfacet
  facet normal -9.854640e-01  1.062801e-01  1.325338e-01
    outer loop
      vertex  -8.763973e-02 -7.775427e-03  2.460000e-01
      vertex  -8.499904e-02 -1.072463e-02  2.680000e-01
      vertex  -8.574787e-02  9.766505e-03  2.460000e-01
    endloop
  endfacet
  facet normal  0.000000e+00  0.000000e+00 -1.000000e+00
    outer loop
      vertex   6.962647e-02 -1.254516e-02  7.800000e-02
      vertex   6.431145e-02  7.867363e-03  7.800000e-02
      vertex   9.997466e-02 -6.000589e-02  7.800000e-02
    endloop
  endfacet
  facet normal  0.000000e+00 -0.000000e+00 -1.000000e+00
    outer loop
      vertex   8.119004e-02  1.303637e-02  7.800000e-02
      vertex   9.997466e-02 -6.000589e-02  7.800000e-02
      vertex   6.431145e-02  7.867363e-03  7.800000e-02
    endloop
  endfacet
  facet normal  0.000000e+00  0.000000e+00  1.000000e+00
    outer loop
      vertex  -6.245917e-02 -3.526533e-03  7.800000e-02
      vertex  -8.122126e-02 -1.298618e-02  7.800000e-02
      vertex  -9.997466e-02 -6.000589e-02  7.800000e-02
    endloop
  endfacet
  facet normal  0.000000e+00 -0.000000e+00 -1.000000e+00
    outer loop
      vertex  -8.954679e-02  3.526533e-03  7.800000e-02
      vertex  -7.659696e-02  1.398279e-02  7.800000e-02
      vertex  -9.997466e-02 -6.000589e-02  7.800000e-02
    endloop
  endfacet
  facet normal  0.000000e+00 -0.000000e+00 -1.000000e+00
    outer loop
      vertex  -7.659696e-02  1.398279e-02  7.800000e-02
      vertex  -6.440766e-02  7.837070e-03  7.800000e-02
      vertex  -9.997466e-02 -6.000589e-02  7.800000e-02
    endloop
  endfacet
  facet normal  5.758700e-01 -8.151812e-01 -6.207496e-02
    outer loop
      vertex   8.954047e-02 -3.568021e-03  2.460000e-01
      vertex   7.722019e-02 -1.394673e-02  2.680000e-01
      vertex   7.477333e-02 -1.400000e-02  2.460000e-01
    endloop
  endfacet
  facet normal -3.709177e-02 -9.678072e-01 -2.489445e-01
    outer loop
      vertex  -8.763973e-02 -7.775427e-03  2.460000e-01
      vertex   7.477333e-02 -1.400000e-02  2.460000e-01
      vertex  -7.843108e-02 -1.378731e-02  2.680000e-01
    endloop
  endfacet
  facet normal  8.006448e-01 -5.719107e-01  1.785669e-01
    outer loop
      vertex   8.954047e-02 -3.568021e-03  2.460000e-01
      vertex   8.931363e-02  2.983446e-03  2.680000e-01
      vertex   7.722019e-02 -1.394673e-02  2.680000e-01
    endloop
  endfacet
  facet normal  0.000000e+00  0.000000e+00 -1.000000e+00
    outer loop
      vertex   8.119004e-02  1.303637e-02  7.800000e-02
      vertex   8.954776e-02 -3.540165e-03  7.800000e-02
      vertex   9.997466e-02 -6.000589e-02  7.800000e-02
    endloop
  endfacet
  facet normal  0.000000e+00  0.000000e+00 -1.000000e+00
    outer loop
      vertex   7.477333e-02  1.400000e-02  2.460000e-01
      vertex  -8.763973e-02 -7.775427e-03  2.460000e-01
      vertex  -7.753202e-02  1.373310e-02  2.460000e-01
    endloop
  endfacet
  facet normal  0.000000e+00 -9.995193e-01  3.100148e-02
    outer loop
      vertex  -6.436624e-02 -7.775427e-03  2.460000e-01
      vertex  -8.763973e-02 -7.775427e-03  2.460000e-01
      vertex  -8.122126e-02 -1.298618e-02  7.800000e-02
    endloop
  endfacet
  facet normal  0.000000e+00  0.000000e+00  1.000000e+00
    outer loop
      vertex   8.931363e-02  2.983446e-03  2.680000e-01
      vertex   8.191667e-02  1.268832e-02  2.680000e-01
      vertex  -7.843108e-02  1.378731e-02  2.680000e-01
    endloop
  endfacet
  facet normal -0.000000e+00  0.000000e+00  1.000000e+00
    outer loop
      vertex   8.119004e-02 -1.303637e-02  7.800000e-02
      vertex   9.997466e-02 -6.000589e-02  7.800000e-02
      vertex   8.954776e-02 -3.540165e-03  7.800000e-02
    endloop
  endfacet
  facet normal  0.000000e+00  0.000000e+00  1.000000e+00
    outer loop
      vertex   7.477333e-02  1.400000e-02  2.460000e-01
      vertex   6.238295e-02 -3.644185e-03  2.460000e-01
      vertex   7.477333e-02 -1.400000e-02  2.460000e-01
    endloop
  endfacet
  facet normal  0.000000e+00 -0.000000e+00 -1.000000e+00
    outer loop
      vertex   7.477333e-02  1.400000e-02  2.460000e-01
      vertex   7.477333e-02 -1.400000e-02  2.460000e-01
      vertex  -8.763973e-02 -7.775427e-03  2.460000e-01
    endloop
  endfacet
  facet normal  0.000000e+00  0.000000e+00  1.000000e+00
    outer loop
      vertex  -6.245917e-02 -3.526533e-03  7.800000e-02
      vertex  -9.997466e-02 -6.000589e-02  7.800000e-02
      vertex   9.997466e-02 -6.000589e-02  7.800000e-02
    endloop
  endfacet
  facet normal -4.244082e-02 -9.990984e-01  1.117871e-03
    outer loop
      vertex   6.962647e-02 -1.254516e-02  7.800000e-02
      vertex   8.119004e-02 -1.303637e-02  7.800000e-02
      vertex   8.134697e-02 -1.291696e-02  1.906809e-01
    endloop
  endfacet
  facet normal  1.767605e-01  9.839413e-01 -2.480375e-02
    outer loop
      vertex   8.181582e-02  1.273485e-02  2.460000e-01
      vertex   7.018874e-02  1.271926e-02  1.625228e-01
      vertex   7.477333e-02  1.400000e-02  2.460000e-01
    endloop
  endfacet
  facet normal -8.927447e-01 -4.501123e-01 -2.014660e-02
    outer loop
      vertex  -8.122126e-02 -1.298618e-02  7.800000e-02
      vertex  -8.763973e-02 -7.775427e-03  2.460000e-01
      vertex  -8.954679e-02  3.526533e-03  7.800000e-02
    endloop
  endfacet
  facet normal  0.000000e+00  0.000000e+00  1.000000e+00
    outer loop
      vertex   6.962647e-02 -1.254516e-02  7.800000e-02
      vertex   9.997466e-02 -6.000589e-02  7.800000e-02
      vertex   8.119004e-02 -1.303637e-02  7.800000e-02
    endloop
  endfacet
  facet normal -8.178379e-01  5.743149e-01  3.610447e-02
    outer loop
      vertex   6.238295e-02 -3.644185e-03  2.460000e-01
      vertex   7.477333e-02  1.400000e-02  2.460000e-01
      vertex   7.018874e-02  1.271926e-02  1.625228e-01
    endloop
  endfacet
  facet normal  0.000000e+00  0.000000e+00  1.000000e+00
    outer loop
      vertex  -7.843108e-02  1.378731e-02  2.680000e-01
      vertex  -7.843108e-02 -1.378731e-02  2.680000e-01
      vertex   8.931363e-02  2.983446e-03  2.680000e-01
    endloop
  endfacet
  facet normal  1.000000e+00  0.000000e+00 -0.000000e+00
    outer loop
      vertex   9.997466e-02  5.999315e-02  0.000000e+00
      vertex   9.997466e-02  5.999315e-02  7.800000e-02
      vertex   9.997466e-02 -6.000589e-02  7.800000e-02
    endloop
  endfacet
  facet normal -1.024209e-03 -9.999962e-01  2.535301e-03
    outer loop
      vertex   7.722019e-02 -1.394673e-02  2.680000e-01
      vertex  -7.843108e-02 -1.378731e-02  2.680000e-01
      vertex   7.477333e-02 -1.400000e-02  2.460000e-01
    endloop
  endfacet
  facet normal -2.050277e-01  9.786645e-01  1.339368e-02
    outer loop
      vertex  -7.064718e-02  1.293006e-02  2.460000e-01
      vertex  -7.659696e-02  1.398279e-02  7.800000e-02
      vertex  -8.574787e-02  9.766505e-03  2.460000e-01
    endloop
  endfacet
  facet normal  9.852545e-01 -1.709579e-01  6.860492e-03
    outer loop
      vertex  -6.245917e-02 -3.526533e-03  7.800000e-02
      vertex  -6.242701e-02  3.400604e-03  2.460000e-01
      vertex  -6.436624e-02 -7.775427e-03  2.460000e-01
    endloop
  endfacet
  facet normal  8.928337e-01  4.501576e-01 -1.435584e-02
    outer loop
      vertex   8.931363e-02  2.983446e-03  2.680000e-01
      vertex   8.954776e-02 -3.540165e-03  7.800000e-02
      vertex   8.119004e-02  1.303637e-02  7.800000e-02
    endloop
  endfacet
  facet normal -1.461579e-02  9.998915e-01  1.849011e-03
    outer loop
      vertex   8.181582e-02  1.273485e-02  2.460000e-01
      vertex   8.119004e-02  1.303637e-02  7.800000e-02
      vertex   7.018874e-02  1.271926e-02  1.625228e-01
    endloop
  endfacet
  facet normal  9.994068e-01  3.443894e-02  4.910195e-05
    outer loop
      vertex   8.931363e-02  2.983446e-03  2.680000e-01
      vertex   8.954047e-02 -3.568021e-03  2.460000e-01
      vertex   8.954776e-02 -3.540165e-03  7.800000e-02
    endloop
  endfacet
  facet normal -1.000000e+00  0.000000e+00  0.000000e+00
    outer loop
      vertex  -9.997466e-02 -6.000589e-02  7.800000e-02
      vertex  -9.997466e-02  5.999315e-02  0.000000e+00
      vertex  -9.997466e-02 -6.000589e-02  0.000000e+00
    endloop
  endfacet
  facet normal  1.000000e+00  0.000000e+00  0.000000e+00
    outer loop
      vertex   9.997466e-02  5.999315e-02  0.000000e+00
      vertex   9.997466e-02 -6.000589e-02  7.800000e-02
      vertex   9.997466e-02 -6.000589e-02  0.000000e+00
    endloop
  endfacet
  facet normal  0.000000e+00  0.000000e+00  1.000000e+00
    outer loop
      vertex  -9.997466e-02 -6.000589e-02  7.800000e-02
      vertex  -6.440766e-02  7.837070e-03  7.800000e-02
      vertex  -9.997466e-02  5.999315e-02  7.800000e-02
    endloop
  endfacet
  facet normal -3.570718e-01 -9.334558e-01  3.406077e-02
    outer loop
      vertex   6.962647e-02 -1.254516e-02  7.800000e-02
      vertex   8.134697e-02 -1.291696e-02  1.906809e-01
      vertex   6.238295e-02 -3.644185e-03  2.460000e-01
    endloop
  endfacet
  facet normal  4.501351e-01 -8.927896e-01 -1.746983e-02
    outer loop
      vertex  -8.122126e-02 -1.298618e-02  7.800000e-02
      vertex  -6.245917e-02 -3.526533e-03  7.800000e-02
      vertex  -6.436624e-02 -7.775427e-03  2.460000e-01
    endloop
  endfacet
  facet normal -9.940646e-01  1.072077e-01  1.849645e-02
    outer loop
      vertex  -8.954679e-02  3.526533e-03  7.800000e-02
      vertex  -8.763973e-02 -7.775427e-03  2.460000e-01
      vertex  -8.574787e-02  9.766505e-03  2.460000e-01
    endloop
  endfacet
  facet normal -6.386464e-01 -7.641184e-01 -9.085114e-02
    outer loop
      vertex   7.477333e-02 -1.400000e-02  2.460000e-01
      vertex   6.238295e-02 -3.644185e-03  2.460000e-01
      vertex   8.134697e-02 -1.291696e-02  1.906809e-01
    endloop
  endfacet
  facet normal  0.000000e+00  0.000000e+00 -1.000000e+00
    outer loop
      vertex  -9.997466e-02  5.999315e-02  0.000000e+00
      vertex   9.997466e-02  5.999315e-02  0.000000e+00
      vertex   9.997466e-02 -6.000589e-02  0.000000e+00
    endloop
  endfacet
  facet normal -1.000000e+00  0.000000e+00  0.000000e+00
    outer loop
      vertex  -9.997466e-02 -6.000589e-02  7.800000e-02
      vertex  -9.997466e-02  5.999315e-02  7.800000e-02
      vertex  -9.997466e-02  5.999315e-02  0.000000e+00
    endloop
  endfacet
  facet normal  1.109512e-01  6.176125e-01  7.786170e-01
    outer loop
      vertex   8.181582e-02  1.273485e-02  2.460000e-01
      vertex   7.477333e-02  1.400000e-02  2.460000e-01
      vertex  -7.843108e-02  1.378731e-02  2.680000e-01
    endloop
  endfacet
  facet normal  0.000000e+00  1.000000e+00  0.000000e+00
    outer loop
      vertex  -9.997466e-02  5.999315e-02  0.000000e+00
      vertex   9.997466e-02  5.999315e-02  7.800000e-02
      vertex   9.997466e-02  5.999315e-02  0.000000e+00
    endloop
  endfacet
  facet normal  0.000000e+00 -1.000000e+00  0.000000e+00
    outer loop
      vertex  -9.997466e-02 -6.000589e-02  0.000000e+00
      vertex   9.997466e-02 -6.000589e-02  0.000000e+00
      vertex   9.997466e-02 -6.000589e-02  7.800000e-02
    endloop
  endfacet
  facet normal  7.506721e-01 -6.606750e-01 -7.695435e-05
    outer loop
      vertex   8.954776e-02 -3.540165e-03  7.800000e-02
      vertex   8.954047e-02 -3.568021e-03  2.460000e-01
      vertex   8.119004e-02 -1.303637e-02  7.800000e-02
    endloop
  endfacet
  facet normal -0.000000e+00  0.000000e+00  1.000000e+00
    outer loop
      vertex  -7.843108e-02 -1.378731e-02  2.680000e-01
      vertex   7.722019e-02 -1.394673e-02  2.680000e-01
      vertex   8.931363e-02  2.983446e-03  2.680000e-01
    endloop
  endfacet
  facet normal  0.000000e+00  0.000000e+00  1.000000e+00
    outer loop
      vertex   9.997466e-02  5.999315e-02  7.800000e-02
      vertex  -6.440766e-02  7.837070e-03  7.800000e-02
      vertex  -6.245917e-02 -3.526533e-03  7.800000e-02
    endloop
  endfacet
  facet normal -9.673435e-01 -2.518773e-01 -2.836321e-02
    outer loop
      vertex   6.431145e-02  7.867363e-03  7.800000e-02
      vertex   6.962647e-02 -1.254516e-02  7.800000e-02
      vertex   6.238295e-02 -3.644185e-03  2.460000e-01
    endloop
  endfacet
  facet normal -2.926482e-01  9.555974e-01 -3.450527e-02
    outer loop
      vertex   6.431145e-02  7.867363e-03  7.800000e-02
      vertex   7.018874e-02  1.271926e-02  1.625228e-01
      vertex   8.119004e-02  1.303637e-02  7.800000e-02
    endloop
  endfacet
  facet normal  9.855906e-01  1.689969e-01 -7.156917e-03
    outer loop
      vertex  -6.440766e-02  7.837070e-03  7.800000e-02
      vertex  -6.242701e-02  3.400604e-03  2.460000e-01
      vertex  -6.245917e-02 -3.526533e-03  7.800000e-02
    endloop
  endfacet
  facet normal  7.947866e-01  6.068861e-01 -1.871242e-03
    outer loop
      vertex   8.931363e-02  2.983446e-03  2.680000e-01
      vertex   8.119004e-02  1.303637e-02  7.800000e-02
      vertex   8.181582e-02  1.273485e-02  2.460000e-01
    endloop
  endfacet
  facet normal  7.571824e-01  6.531504e-01  8.321222e-03
    outer loop
      vertex  -6.440766e-02  7.837070e-03  7.800000e-02
      vertex  -7.064718e-02  1.293006e-02  2.460000e-01
      vertex  -6.242701e-02  3.400604e-03  2.460000e-01
    endloop
  endfacet
  facet normal -0.000000e+00  1.000000e+00  0.000000e+00
    outer loop
      vertex  -9.997466e-02  5.999315e-02  7.800000e-02
      vertex   9.997466e-02  5.999315e-02  7.800000e-02
      vertex  -9.997466e-02  5.999315e-02  0.000000e+00
    endloop
  endfacet
  facet normal -1.752394e-03  9.999953e-01 -2.535670e-03
    outer loop
      vertex   7.477333e-02  1.400000e-02  2.460000e-01
      vertex  -7.753202e-02  1.373310e-02  2.460000e-01
      vertex  -7.843108e-02  1.378731e-02  2.680000e-01
    endloop
  endfacet
  facet normal -0.000000e+00 -1.000000e+00  0.000000e+00
    outer loop
      vertex   9.997466e-02 -6.000589e-02  7.800000e-02
      vertex  -9.997466e-02 -6.000589e-02  7.800000e-02
      vertex  -9.997466e-02 -6.000589e-02  0.000000e+00
    endloop
  endfacet
  facet normal  4.501799e-01  8.928779e-01 -1.034829e-02
    outer loop
      vertex  -6.440766e-02  7.837070e-03  7.800000e-02
      vertex  -7.659696e-02  1.398279e-02  7.800000e-02
      vertex  -7.064718e-02  1.293006e-02  2.460000e-01
    endloop
  endfacet
  facet normal  7.530812e-01 -6.579275e-01 -3.515519e-04
    outer loop
      vertex   8.134697e-02 -1.291696e-02  1.906809e-01
      vertex   8.119004e-02 -1.303637e-02  7.800000e-02
      vertex   8.954047e-02 -3.568021e-03  2.460000e-01
    endloop
  endfacet
  facet normal  5.761870e-01 -8.156299e-01  5.250059e-02
    outer loop
      vertex   8.134697e-02 -1.291696e-02  1.906809e-01
      vertex   8.954047e-02 -3.568021e-03  2.460000e-01
      vertex   7.477333e-02 -1.400000e-02  2.460000e-01
    endloop
  endfacet
  facet normal  0.000000e+00  0.000000e+00 -1.000000e+00
    outer loop
      vertex   9.997466e-02 -6.000589e-02  0.000000e+00
      vertex  -9.997466e-02 -6.000589e-02  0.000000e+00
      vertex  -9.997466e-02  5.999315e-02  0.000000e+00
    endloop
  endfacet
  facet normal -0.000000e+00  0.000000e+00  1.000000e+00
    outer loop
      vertex  -6.245917e-02 -3.526533e-03  7.800000e-02
      vertex   9.997466e-02 -6.000589e-02  7.800000e-02
      vertex   6.431145e-02  7.867363e-03  7.800000e-02
    endloop
  endfacet
  facet normal  0.000000e+00 -0.000000e+00  1.000000e+00
    outer loop
      vertex   9.997466e-02 -6.000589e-02  7.800000e-02
      vertex   9.997466e-02  5.999315e-02  7.800000e-02
      vertex   6.431145e-02  7.867363e-03  7.800000e-02
    endloop
  endfacet
  facet normal  0.000000e+00  0.000000e+00  1.000000e+00
    outer loop
      vertex  -6.245917e-02 -3.526533e-03  7.800000e-02
      vertex   6.431145e-02  7.867363e-03  7.800000e-02
      vertex   9.997466e-02  5.999315e-02  7.800000e-02
    endloop
  endfacet
  facet normal  0.000000e+00 -0.000000e+00  1.000000e+00
    outer loop
      vertex  -6.440766e-02  7.837070e-03  7.800000e-02
      vertex   9.997466e-02  5.999315e-02  7.800000e-02
      vertex  -9.997466e-02  5.999315e-02  7.800000e-02
    endloop
  endfacet
  facet normal -8.406723e-01  5.408502e-01  2.740944e-02
    outer loop
      vertex   7.018874e-02  1.271926e-02  1.625228e-01
      vertex   6.431145e-02  7.867363e-03  7.800000e-02
      vertex   6.238295e-02 -3.644185e-03  2.460000e-01
    endloop
  endfacet
  facet normal  6.853613e-03  9.999744e-01  2.083519e-03
    outer loop
      vertex   8.181582e-02  1.273485e-02  2.460000e-01
      vertex  -7.843108e-02  1.378731e-02  2.680000e-01
      vertex   8.191667e-02  1.268832e-02  2.680000e-01
    endloop
  endfacet
endsolid vcg
